<svg width="37" height="30" viewBox="0 0 37 30" fill="none" xmlns="http://www.w3.org/2000/svg">
<path d="M30.9251 11.695C32.8693 14.1779 32.4651 17.2164 32.4651 19.8958C32.4651 27.2765 23.2478 29.3438 18.5001 29.3438C13.7523 29.3438 4.53509 27.2765 4.53509 19.8958C4.53509 17.2164 4.13084 14.1779 6.07509 11.695M30.9251 11.695C30.5838 11.2604 30.1726 10.8447 29.6721 10.4478L30.9251 11.695ZM30.9251 11.695C32.1501 12.4565 32.4633 9.60697 32.4651 8.6754V5.13431C32.4651 2.06372 30.5103 0.999878 28.8338 0.999878C27.1591 0.999878 23.8061 3.95331 22.6896 3.95331C21.3491 3.95331 21.0901 3.65664 18.5001 3.65664C15.9101 3.65664 15.6511 3.95331 14.3106 3.95331C13.1941 3.95331 9.84109 0.999878 8.16634 0.999878C6.48984 0.999878 4.53509 2.06372 4.53509 5.13431V8.67729C4.53859 9.60697 4.85009 12.4565 6.07509 11.695M6.07509 11.695C6.41634 11.2604 6.82759 10.8447 7.32809 10.4478L6.07509 11.695Z" fill="white"/>
<path d="M30.9251 11.695C32.8693 14.1779 32.4651 17.2164 32.4651 19.8958C32.4651 27.2765 23.2478 29.3438 18.5001 29.3438C13.7523 29.3438 4.53509 27.2765 4.53509 19.8958C4.53509 17.2164 4.13084 14.1779 6.07509 11.695M30.9251 11.695C30.5838 11.2604 30.1726 10.8447 29.6721 10.4478M30.9251 11.695C32.1501 12.4565 32.4633 9.60697 32.4651 8.6754V5.1343C32.4651 2.06372 30.5103 0.999878 28.8338 0.999878C27.1591 0.999878 23.8061 3.95331 22.6896 3.95331C21.3491 3.95331 21.0901 3.65664 18.5001 3.65664C15.9101 3.65664 15.6511 3.95331 14.3106 3.95331C13.1941 3.95331 9.84109 0.999878 8.16634 0.999878C6.48984 0.999878 4.53509 2.06372 4.53509 5.1343V8.67729C4.53859 9.60697 4.85009 12.4565 6.07509 11.695M6.07509 11.695C6.41634 11.2604 6.82759 10.8447 7.32809 10.4478" stroke="#676767" stroke-linecap="round"/>
<path d="M14.125 17.2393C14.125 18.0537 13.7452 18.7151 13.278 18.7151C12.8107 18.7151 12.431 18.0537 12.431 17.2393C12.431 16.423 12.8107 15.7635 13.278 15.7635C13.7452 15.7635 14.125 16.4268 14.125 17.2393Z" fill="white"/>
<path d="M19.9455 21.7857C19.9455 22.1126 19.3137 22.3771 18.5332 22.3771C17.7545 22.3771 17.1227 22.1126 17.1227 21.7857C17.1227 21.4588 17.7545 21.1961 18.5332 21.1961C19.3137 21.1961 19.9455 21.4607 19.9455 21.7857Z" fill="white"/>
<path d="M14.125 17.2393C14.125 18.0537 13.7452 18.7151 13.278 18.7151C12.8107 18.7151 12.431 18.0537 12.431 17.2393C12.431 16.423 12.8107 15.7635 13.278 15.7635C13.7452 15.7635 14.125 16.4268 14.125 17.2393Z" stroke="#676767"/>
<path d="M19.9455 21.7857C19.9455 22.1126 19.3137 22.3771 18.5332 22.3771C17.7545 22.3771 17.1227 22.1126 17.1227 21.7857C17.1227 21.4588 17.7545 21.1961 18.5332 21.1961C19.3137 21.1961 19.9455 21.4607 19.9455 21.7857Z" stroke="#676767"/>
<path d="M36 20.7822C35.1548 20.1907 31.485 18.715 30.0728 18.715L36 20.7822ZM33.1772 25.5062C32.3302 24.9147 30.3545 23.4389 28.9422 23.4389L33.1772 25.5062ZM1 20.7822C1.847 20.1907 5.515 18.715 6.92725 18.715L1 20.7822ZM3.82275 25.5062C4.66975 24.9147 6.6455 23.4389 8.05775 23.4389L3.82275 25.5062Z" fill="white"/>
<path d="M36 20.7822C35.1547 20.1907 31.485 18.715 30.0728 18.715M33.1772 25.5062C32.3302 24.9147 30.3545 23.4389 28.9422 23.4389M1 20.7822C1.847 20.1907 5.515 18.715 6.92725 18.715M3.82275 25.5062C4.66975 24.9147 6.6455 23.4389 8.05775 23.4389" stroke="#676767" stroke-linecap="round"/>
</svg>
