<svg width="35" height="28" viewBox="0 0 35 28" fill="none" xmlns="http://www.w3.org/2000/svg">
<path d="M27.0455 -0.00012207C24.325 -0.00012207 22.6705 0.566756 21.7159 1.04774C20.4909 0.394975 19.0909 -0.00012207 17.5 -0.00012207C15.9091 -0.00012207 14.5091 0.394975 13.2841 1.04774C12.3295 0.566756 10.675 -0.00012207 7.95455 -0.00012207C3.18182 -0.00012207 0 13.7424 0 17.178C0 18.6038 2.1 19.9093 4.99545 20.4418C6.01364 24.2897 10.8182 27.2272 16.7045 27.4848V20.1326C15.7659 19.497 14.3182 18.3461 14.3182 17.178C14.3182 15.4602 17.5 15.4602 17.5 15.4602C17.5 15.4602 20.6818 15.4602 20.6818 17.178C20.6818 18.3461 19.2341 19.497 18.2955 20.1326V27.4848C24.1818 27.2272 28.9864 24.2897 30.0045 20.4418C32.9 19.9093 35 18.6038 35 17.178C35 13.7424 31.8182 -0.00012207 27.0455 -0.00012207ZM5.01136 16.9547C4.21591 16.7485 3.59545 16.508 3.18182 16.3191C3.57955 11.5607 6.68182 4.12262 8.03409 3.4355C8.89318 3.4355 9.54545 3.53857 10.1341 3.62446C6.79318 7.5926 5.47273 13.8111 5.01136 16.9547ZM12.7273 13.7424C12.3053 13.7424 11.9007 13.5614 11.6023 13.2392C11.304 12.9171 11.1364 12.4801 11.1364 12.0246C11.1364 11.0969 11.8523 10.3067 12.7273 10.3067C13.1492 10.3067 13.5539 10.4877 13.8522 10.8099C14.1506 11.132 14.3182 11.569 14.3182 12.0246C14.3182 12.9865 13.6023 13.7424 12.7273 13.7424ZM22.2727 13.7424C21.8508 13.7424 21.4461 13.5614 21.1478 13.2392C20.8494 12.9171 20.6818 12.4801 20.6818 12.0246C20.6818 11.0969 21.3977 10.3067 22.2727 10.3067C22.6947 10.3067 23.0993 10.4877 23.3977 10.8099C23.696 11.132 23.8636 11.569 23.8636 12.0246C23.8636 12.9865 23.1477 13.7424 22.2727 13.7424ZM29.9886 16.9547C29.5273 13.8111 28.2068 7.5926 24.8659 3.62446C25.4545 3.53857 26.1068 3.4355 26.9659 3.4355C28.3182 4.12262 31.4205 11.5607 31.8182 16.3191C31.4205 16.508 30.8 16.7485 29.9886 16.9547Z" fill="white"/>
</svg>
