<svg width="35" height="28" viewBox="0 0 35 28" fill="none" xmlns="http://www.w3.org/2000/svg">
<path d="M23.6784 1.5426L33.1742 11.8167C34.3434 13.0833 35 14.7988 35 16.5871C35 18.3755 34.3434 20.0909 33.1742 21.3576C32.4229 22.172 31.4907 22.7646 30.4667 23.0789C29.4427 23.3932 28.3612 23.4187 27.3255 23.1527V23.3871C27.3259 23.8838 27.2358 24.3757 27.0601 24.8348C26.8844 25.2939 26.6267 25.7111 26.3017 26.0626C25.9766 26.4141 25.5906 26.693 25.1657 26.8833C24.7408 27.0737 24.2854 27.1718 23.8254 27.1721H20.1327L20.1345 25.7586L20.1257 25.4411C20.0548 24.1763 19.5587 22.983 18.7305 22.0853C17.9023 21.1876 16.7991 20.6473 15.6281 20.5658L15.3236 20.5545H13.5735L13.3967 20.5677C13.0821 20.6144 12.7938 20.7825 12.5851 21.041C12.3764 21.2994 12.2615 21.6307 12.2615 21.9736C12.2615 22.3165 12.3764 22.6478 12.5851 22.9062C12.7938 23.1647 13.0821 23.3328 13.3967 23.3795L13.5752 23.3927H15.3253L15.5476 23.406C16.048 23.4619 16.5153 23.7023 16.8707 24.0868C17.2262 24.4712 17.448 24.9763 17.4989 25.5167L17.5111 25.7586L17.5094 27.1721H8.75907C8.29928 27.1716 7.84408 27.0733 7.41949 26.8827C6.99489 26.6922 6.60922 26.4133 6.28451 26.0618C5.95979 25.7103 5.7024 25.2932 5.52703 24.8342C5.35166 24.3753 5.26175 23.8835 5.26244 23.3871V18.6554C5.26244 18.2963 5.28344 17.9411 5.32194 17.5934C4.68224 17.7458 4.01902 17.7412 3.38116 17.5801C2.7433 17.4189 2.14706 17.1053 1.63636 16.6623C1.12566 16.2193 0.713524 15.6582 0.430322 15.0204C0.147119 14.3826 6.75253e-05 13.6843 1.40347e-06 12.9769C-0.00092748 11.7233 0.459263 10.5207 1.27939 9.63334C2.09951 8.74603 3.21242 8.24673 4.37341 8.24522C5.32894 8.24586 6.25801 8.58425 7.01866 9.2087C7.77931 9.83314 8.32973 10.7093 8.58581 11.7033C9.91331 10.6812 11.5038 10.1334 13.1342 10.1368H19.4537C20.509 10.1368 21.517 10.3635 22.4376 10.7698C22.7312 10.2366 23.0819 9.74256 23.4823 9.29777L19.9962 5.52789C19.5074 4.99867 19.2329 4.28174 19.2329 3.5343C19.2329 2.78687 19.5074 2.06994 19.9962 1.54071C20.2378 1.27898 20.5249 1.0713 20.841 0.929606C21.157 0.787906 21.4959 0.714966 21.8382 0.714966C22.1804 0.714966 22.5193 0.787906 22.8354 0.929606C23.1514 1.0713 23.4385 1.27898 23.6801 1.54071" fill="white"/>
</svg>
