<svg width="35" height="34" viewBox="0 0 35 34" fill="none" xmlns="http://www.w3.org/2000/svg">
<path d="M34.4797 9.7525L31.0922 7.31506C30.4623 5.16326 29.1398 3.32601 27.3641 2.13578C25.5884 0.945554 23.4768 0.480983 21.4113 0.826138C19.3459 1.17129 17.4631 2.30337 16.1037 4.01751C14.7443 5.73165 13.998 7.9146 14 10.1713V12.878L0.255925 31.4281C0.118519 31.6134 0.032404 31.8369 0.00750597 32.0727C-0.017392 32.3086 0.0199403 32.5473 0.1152 32.7612C0.21046 32.9752 0.359769 33.1557 0.54592 33.282C0.732071 33.4083 0.947485 33.4752 1.16733 33.4751H16.3332C20.3541 33.4705 24.2092 31.7437 27.0524 28.6737C29.8956 25.6037 31.4948 21.4411 31.499 17.0995V13.9944L34.4797 11.8498C34.6397 11.7349 34.771 11.579 34.8617 11.396C34.9525 11.2131 35 11.0087 35 10.8012C35 10.5936 34.9525 10.3893 34.8617 10.2063C34.771 10.0234 34.6397 9.86749 34.4797 9.7525ZM16.0634 20.425L10.2304 27.9829C10.0324 28.2398 9.74798 28.4011 9.43977 28.4316C9.13157 28.462 8.82479 28.3589 8.58694 28.1451C8.34909 27.9313 8.19964 27.6242 8.17147 27.2914C8.1433 26.9586 8.23872 26.6274 8.43674 26.3706L14.2698 18.8126C14.3678 18.6854 14.4881 18.5804 14.6237 18.5034C14.7594 18.4264 14.9078 18.3791 15.0604 18.364C15.213 18.3489 15.3668 18.3665 15.5132 18.4156C15.6595 18.4648 15.7954 18.5446 15.9132 18.6504C16.031 18.7563 16.1283 18.8862 16.1996 19.0327C16.2709 19.1791 16.3147 19.3393 16.3287 19.5041C16.3426 19.6689 16.3264 19.835 16.2809 19.993C16.2354 20.151 16.1615 20.2978 16.0634 20.425ZM23.9161 10.8012C23.57 10.8012 23.2317 10.6904 22.9439 10.4827C22.6562 10.2751 22.4319 9.98002 22.2994 9.63476C22.167 9.2895 22.1323 8.90958 22.1998 8.54306C22.2674 8.17653 22.434 7.83986 22.6788 7.57561C22.9235 7.31136 23.2353 7.1314 23.5747 7.05849C23.9142 6.98559 24.266 7.02301 24.5858 7.16602C24.9055 7.30903 25.1788 7.55121 25.3711 7.86193C25.5634 8.17266 25.666 8.53797 25.666 8.91168C25.666 9.4128 25.4817 9.8934 25.1535 10.2478C24.8253 10.6021 24.3802 10.8012 23.9161 10.8012Z" fill="white"/>
</svg>
