<svg width="385" height="155" viewBox="0 0 385 155" fill="none" xmlns="http://www.w3.org/2000/svg">
<g filter="url(#filter0_d_28_2)">
<rect x="4" width="122" height="147" rx="9" fill="#118DF0"/>
<path d="M22 115.5C21.6077 115.191 16.4368 95.0572 22 73.5C23.6866 89.3403 23.8612 98.4769 22 115.5Z" fill="#0E2F56" stroke="#0E2F56" stroke-linejoin="round"/>
<path d="M35.5 56C36.7 74 29.3333 102.5 25.5 114.5C47.5 78.1 50.3333 54 49 46.5L35.5 56Z" fill="#0E2F56"/>
<path d="M69.5 34.5C67.9 61.3 44.8333 93 33.5 105.5C45.5168 93.9552 81.3056 52.5626 80 28.5L69.5 34.5Z" fill="#0E2F56"/>
<path d="M97.5 10C97.5 51.6 63.1667 85 46 96.5C87 72 103 46.5 104 42C104.8 38.4 100 19.1667 97.5 10Z" fill="#0E2F56"/>
<path d="M69.5 92.5C61.1 95.7 41 108.5 32 114.5L100 89C103.5 87 103 68 103 70.5C103 73 80 88.5 69.5 92.5Z" fill="#0E2F56"/>
<path d="M61 112C51 113 39.8333 116.167 32 118L77 120L89 110C81.5 110.5 71 111 61 112Z" fill="#0E2F56"/>
<path d="M42 122C31.5 121 25.5 122 25.5 122C25.5 122 31 125.5 39 126.5C47 127.5 58.5 125.5 58.5 125.5C58.5 125.5 52.5 123 42 122Z" fill="#0E2F56"/>
<path d="M35.5 56C36.7 74 29.3333 102.5 25.5 114.5C47.5 78.1 50.3333 54 49 46.5L35.5 56Z" stroke="#0E2F56" stroke-linejoin="round"/>
<path d="M69.5 34.5C67.9 61.3 44.8333 93 33.5 105.5C45.5168 93.9552 81.3056 52.5626 80 28.5L69.5 34.5Z" stroke="#0E2F56" stroke-linejoin="round"/>
<path d="M97.5 10C97.5 51.6 63.1667 85 46 96.5C87 72 103 46.5 104 42C104.8 38.4 100 19.1667 97.5 10Z" stroke="#0E2F56" stroke-linejoin="round"/>
<path d="M69.5 92.5C61.1 95.7 41 108.5 32 114.5L100 89C103.5 87 103 68 103 70.5C103 73 80 88.5 69.5 92.5Z" stroke="#0E2F56" stroke-linejoin="round"/>
<path d="M61 112C51 113 39.8333 116.167 32 118L77 120L89 110C81.5 110.5 71 111 61 112Z" stroke="#0E2F56" stroke-linejoin="round"/>
<path d="M42 122C31.5 121 25.5 122 25.5 122C25.5 122 31 125.5 39 126.5C47 127.5 58.5 125.5 58.5 125.5C58.5 125.5 52.5 123 42 122Z" stroke="#0E2F56" stroke-linejoin="round"/>
<path d="M240.096 100.307C244.334 93.6339 246.558 86.2699 246.768 78.2146C246.858 74.6078 246.663 72.1882 246.182 70.9558C245.731 69.7235 244.815 69.0923 243.432 69.0622C242.049 69.0021 240.787 69.6483 239.645 71.0009C238.533 72.3234 237.451 74.0818 236.399 76.2759C233.603 82.0469 232.1 88.5242 231.89 95.7078C231.77 101.268 232.732 104.124 234.775 104.274C236.579 104.334 238.352 103.012 240.096 100.307ZM224.406 96.6096C224.706 88.3138 226.42 81.1752 229.546 75.1939C230.898 72.5488 232.01 70.6402 232.882 69.468C233.754 68.2657 234.806 67.0784 236.038 65.9062C238.593 63.4716 241.674 62.2843 245.28 62.3445C248.376 62.4947 250.781 64.0427 252.494 66.9883C253.757 69.0021 254.298 72.3685 254.117 77.0875C253.967 81.7764 253.17 86.3751 251.728 90.8837C250.315 95.3622 248.722 99.1043 246.949 102.11C243.402 108.031 238.878 110.902 233.378 110.721C231.364 110.631 229.546 109.775 227.922 108.151C226.84 107.13 225.954 105.627 225.262 103.643C224.601 101.629 224.316 99.2846 224.406 96.6096ZM267.056 43.3183C268.679 43.3183 269.385 44.1599 269.175 45.8431L265.433 101.885L293.341 45.0766C294.002 43.694 295.174 43.0778 296.857 43.2281L298.886 43.4085C300.93 43.5588 301.576 44.731 300.825 46.9252L269.986 106.303C268.814 108.677 266.966 109.91 264.441 110L261.6 110.09C260.368 110.12 259.421 109.669 258.76 108.738C258.099 107.806 257.813 106.558 257.903 104.995L261.15 45.3472C261.3 43.9946 262.217 43.3183 263.9 43.3183H267.056ZM298.665 91.2444C304.916 88.5392 309.17 84.8723 311.424 80.2435C312.566 77.869 313.137 75.5395 313.137 73.2552C313.137 70.9708 312.476 69.8287 311.153 69.8287C308.268 69.8287 305.773 72.083 303.669 76.5915C301.595 81.1001 299.927 85.9844 298.665 91.2444ZM297.492 97.3309C297.042 99.9158 297.072 101.734 297.583 102.786C298.094 103.808 298.905 104.454 300.017 104.725C302.301 103.883 305.097 101.584 308.403 97.8269C308.974 97.2558 309.59 97.1957 310.252 97.6465L312.01 98.7286C312.371 98.939 312.626 99.2696 312.776 99.7205C312.957 100.141 312.972 100.487 312.821 100.757C311.679 102.982 309.515 105.356 306.329 107.881C303.173 110.376 300.633 111.428 298.71 111.037C294.351 109.985 291.797 107.701 291.045 104.184C290.474 101.389 290.579 97.6465 291.361 92.9576C292.172 88.2687 293.66 83.4295 295.824 78.44C298.98 71.1362 302.632 66.5224 306.78 64.5987C310.056 63.0658 313.047 62.9005 315.752 64.1028C318.487 65.3051 319.855 68.2958 319.855 73.0748C319.855 75.8401 319.179 78.5603 317.826 81.2353C315.391 86.0144 311.093 90.2074 304.931 93.8142C302.527 95.2269 300.047 96.3992 297.492 97.3309ZM341.901 48.8638C341.901 48.8638 340.683 53.6129 338.249 63.1109H343.118C343.809 63.1109 344.26 63.2612 344.47 63.5618C344.681 63.8623 344.681 64.3883 344.47 65.1398L343.839 67.5293C343.449 68.8819 342.652 69.5582 341.45 69.5582H336.626L326.842 107.971C326.481 109.324 325.565 110 324.092 110H322.333C321.342 110 320.635 109.714 320.214 109.143C319.824 108.572 319.718 107.866 319.899 107.024L329.457 69.5582H325.85C325.219 69.5582 324.798 69.4079 324.588 69.1073C324.407 68.7767 324.422 68.1906 324.633 67.349L325.354 64.8692C325.685 63.697 326.361 63.1109 327.383 63.1109H331.125L334.777 48.7737C335.138 47.4211 336.07 46.7448 337.572 46.7448H339.872C341.555 46.7448 342.231 47.4512 341.901 48.8638Z" fill="#0E2F56"/>
<path d="M169.833 43.3183C171.456 43.3183 172.163 44.1599 171.952 45.8431L168.21 101.885L196.118 45.0766C196.779 43.694 197.952 43.0778 199.635 43.2281L201.664 43.4085C203.708 43.5588 204.354 44.731 203.602 46.9252L172.764 106.303C171.592 108.677 169.743 109.91 167.218 110L164.378 110.09C163.145 110.12 162.199 109.669 161.537 108.738C160.876 107.806 160.591 106.558 160.681 104.995L163.927 45.3472C164.077 43.9946 164.994 43.3183 166.677 43.3183H169.833ZM209.279 100.307C213.517 93.6339 215.741 86.2699 215.952 78.2146C216.042 74.6078 215.847 72.1882 215.366 70.9558C214.915 69.7235 213.998 69.0923 212.616 69.0622C211.233 69.0021 209.97 69.6483 208.828 71.0009C207.716 72.3234 206.634 74.0818 205.582 76.2759C202.787 82.0469 201.284 88.5242 201.074 95.7078C200.953 101.268 201.915 104.124 203.959 104.274C205.762 104.334 207.536 103.012 209.279 100.307ZM193.589 96.6096C193.89 88.3138 195.603 81.1752 198.729 75.1939C200.082 72.5488 201.194 70.6402 202.065 69.468C202.937 68.2657 203.989 67.0784 205.221 65.9062C207.776 63.4716 210.857 62.2843 214.464 62.3445C217.56 62.4947 219.964 64.0427 221.678 66.9883C222.94 69.0021 223.481 72.3685 223.301 77.0875C223.151 81.7764 222.354 86.3751 220.911 90.8837C219.499 95.3622 217.906 99.1043 216.132 102.11C212.585 108.031 208.062 110.902 202.561 110.721C200.548 110.631 198.729 109.775 197.106 108.151C196.024 107.13 195.137 105.627 194.446 103.643C193.785 101.629 193.499 99.2846 193.589 96.6096Z" fill="#118DF0"/>
</g>
<defs>
<filter id="filter0_d_28_2" x="0" y="0" width="348.786" height="155" filterUnits="userSpaceOnUse" color-interpolation-filters="sRGB">
<feFlood flood-opacity="0" result="BackgroundImageFix"/>
<feColorMatrix in="SourceAlpha" type="matrix" values="0 0 0 0 0 0 0 0 0 0 0 0 0 0 0 0 0 0 127 0" result="hardAlpha"/>
<feOffset dy="4"/>
<feGaussianBlur stdDeviation="2"/>
<feComposite in2="hardAlpha" operator="out"/>
<feColorMatrix type="matrix" values="0 0 0 0 0 0 0 0 0 0 0 0 0 0 0 0 0 0 0.25 0"/>
<feBlend mode="normal" in2="BackgroundImageFix" result="effect1_dropShadow_28_2"/>
<feBlend mode="normal" in="SourceGraphic" in2="effect1_dropShadow_28_2" result="shape"/>
</filter>
</defs>
</svg>
