<svg width="150" height="150" viewBox="0 0 150 150" fill="none" xmlns="http://www.w3.org/2000/svg">
<path d="M0 75C0 51.7029 0 40.0544 3.80602 30.8658C8.88072 18.6144 18.6144 8.88072 30.8658 3.80602C40.0544 0 51.7029 0 75 0V0C98.2971 0 109.946 0 119.134 3.80602C131.386 8.88072 141.119 18.6144 146.194 30.8658C150 40.0544 150 51.7029 150 75V75C150 98.2971 150 109.946 146.194 119.134C141.119 131.386 131.386 141.119 119.134 146.194C109.946 150 98.2971 150 75 150V150C51.7029 150 40.0544 150 30.8658 146.194C18.6144 141.119 8.88072 131.386 3.80602 119.134C0 109.946 0 98.2971 0 75V75Z" fill="#118DF0"/>
<path d="M22.1311 117.857C21.6488 117.542 15.2912 96.9972 22.1311 75C24.2048 91.1636 24.4195 100.487 22.1311 117.857Z" fill="#0E2F56" stroke="#0E2F56" stroke-linejoin="round"/>
<path d="M38.7295 57.1428C40.2049 75.5102 31.1476 104.592 26.4344 116.837C53.4836 79.6939 56.9672 55.102 55.3279 47.449L38.7295 57.1428Z" fill="#0E2F56"/>
<path d="M80.5328 35.2041C78.5656 62.551 50.2049 94.8979 36.2705 107.653C51.0452 95.8726 95.0479 53.6353 93.4426 29.0816L80.5328 35.2041Z" fill="#0E2F56"/>
<path d="M114.959 10.2041C114.959 52.653 72.7459 86.7347 51.6394 98.4694C102.049 73.4694 121.721 47.449 122.951 42.8571C123.934 39.1837 118.033 19.5578 114.959 10.2041Z" fill="#0E2F56"/>
<path d="M80.5328 94.3877C70.2049 97.6531 45.4918 110.714 34.4263 116.837L118.033 90.8163C122.336 88.7755 121.721 69.3877 121.721 71.9388C121.721 74.4898 93.4426 90.3061 80.5328 94.3877Z" fill="#0E2F56"/>
<path d="M70.082 114.286C57.7869 115.306 44.0574 118.537 34.4263 120.408L89.7541 122.449L104.508 112.245C95.2869 112.755 82.3771 113.265 70.082 114.286Z" fill="#0E2F56"/>
<path d="M46.7213 124.49C33.8115 123.469 26.4344 124.49 26.4344 124.49C26.4344 124.49 33.1967 128.061 43.0328 129.082C52.8689 130.102 67.0082 128.061 67.0082 128.061C67.0082 128.061 59.6312 125.51 46.7213 124.49Z" fill="#0E2F56"/>
<path d="M38.7295 57.1428C40.2049 75.5102 31.1476 104.592 26.4344 116.837C53.4836 79.6939 56.9672 55.102 55.3279 47.449L38.7295 57.1428Z" stroke="#0E2F56" stroke-linejoin="round"/>
<path d="M80.5328 35.2041C78.5656 62.551 50.2049 94.8979 36.2705 107.653C51.0452 95.8726 95.0479 53.6353 93.4426 29.0816L80.5328 35.2041Z" stroke="#0E2F56" stroke-linejoin="round"/>
<path d="M114.959 10.2041C114.959 52.653 72.7459 86.7347 51.6394 98.4694C102.049 73.4694 121.721 47.449 122.951 42.8571C123.934 39.1837 118.033 19.5578 114.959 10.2041Z" stroke="#0E2F56" stroke-linejoin="round"/>
<path d="M80.5328 94.3877C70.2049 97.6531 45.4918 110.714 34.4263 116.837L118.033 90.8163C122.336 88.7755 121.721 69.3877 121.721 71.9388C121.721 74.4898 93.4426 90.3061 80.5328 94.3877Z" stroke="#0E2F56" stroke-linejoin="round"/>
<path d="M70.082 114.286C57.7869 115.306 44.0574 118.537 34.4263 120.408L89.7541 122.449L104.508 112.245C95.2869 112.755 82.3771 113.265 70.082 114.286Z" stroke="#0E2F56" stroke-linejoin="round"/>
<path d="M46.7213 124.49C33.8115 123.469 26.4344 124.49 26.4344 124.49C26.4344 124.49 33.1967 128.061 43.0328 129.082C52.8689 130.102 67.0082 128.061 67.0082 128.061C67.0082 128.061 59.6312 125.51 46.7213 124.49Z" stroke="#0E2F56" stroke-linejoin="round"/>
</svg>
