<svg width="67" height="80" viewBox="0 0 67 80" fill="none" xmlns="http://www.w3.org/2000/svg">
<rect width="66.3946" height="80" rx="9" fill="#118DF0"/>
<path d="M9.79597 62.8571C9.58247 62.6892 6.76841 51.7318 9.79597 40C10.7139 48.6206 10.8089 53.5929 9.79597 62.8571Z" fill="#0E2F56" stroke="#0E2F56" stroke-linejoin="round"/>
<path d="M17.1429 30.4762C17.7959 40.2721 13.7869 55.7823 11.7007 62.313C23.6735 42.5034 25.2154 29.3878 24.4898 25.3061L17.1429 30.4762Z" fill="#0E2F56"/>
<path d="M35.6463 18.7755C34.7755 33.3606 22.2222 50.6123 16.0544 57.415C22.5942 51.1321 42.0711 28.6055 41.3606 15.5102L35.6463 18.7755Z" fill="#0E2F56"/>
<path d="M50.8844 5.4422C50.8844 28.0817 32.1996 46.2585 22.8571 52.517C45.1701 39.1837 53.8776 25.3061 54.4218 22.8572C54.8572 20.898 52.2449 10.4309 50.8844 5.4422Z" fill="#0E2F56"/>
<path d="M35.6463 50.3402C31.0748 52.0817 20.1361 59.0476 15.2381 62.313L52.2449 48.4354C54.1497 47.347 53.8776 37.0068 53.8776 38.3674C53.8776 39.7279 41.3606 48.1633 35.6463 50.3402Z" fill="#0E2F56"/>
<path d="M31.0204 60.9524C25.5782 61.4966 19.5011 63.22 15.2381 64.2177L39.7279 65.3061L46.2585 59.864C42.1769 60.1361 36.4626 60.4082 31.0204 60.9524Z" fill="#0E2F56"/>
<path d="M20.6803 66.3946C14.966 65.8504 11.7007 66.3946 11.7007 66.3946C11.7007 66.3946 14.6939 68.2993 19.0476 68.8436C23.4014 69.3878 29.6599 68.2993 29.6599 68.2993C29.6599 68.2993 26.3946 66.9388 20.6803 66.3946Z" fill="#0E2F56"/>
<path d="M17.1429 30.4762C17.7959 40.2721 13.7869 55.7823 11.7007 62.313C23.6735 42.5034 25.2154 29.3878 24.4898 25.3061L17.1429 30.4762Z" stroke="#0E2F56" stroke-linejoin="round"/>
<path d="M35.6463 18.7755C34.7755 33.3606 22.2222 50.6123 16.0544 57.415C22.5942 51.1321 42.0711 28.6055 41.3606 15.5102L35.6463 18.7755Z" stroke="#0E2F56" stroke-linejoin="round"/>
<path d="M50.8844 5.4422C50.8844 28.0817 32.1996 46.2585 22.8571 52.517C45.1701 39.1837 53.8776 25.3061 54.4218 22.8572C54.8572 20.898 52.2449 10.4309 50.8844 5.4422Z" stroke="#0E2F56" stroke-linejoin="round"/>
<path d="M35.6463 50.3402C31.0748 52.0817 20.1361 59.0476 15.2381 62.313L52.2449 48.4354C54.1497 47.347 53.8776 37.0068 53.8776 38.3674C53.8776 39.7279 41.3606 48.1633 35.6463 50.3402Z" stroke="#0E2F56" stroke-linejoin="round"/>
<path d="M31.0204 60.9524C25.5782 61.4966 19.5011 63.22 15.2381 64.2177L39.7279 65.3061L46.2585 59.864C42.1769 60.1361 36.4626 60.4082 31.0204 60.9524Z" stroke="#0E2F56" stroke-linejoin="round"/>
<path d="M20.6803 66.3946C14.966 65.8504 11.7007 66.3946 11.7007 66.3946C11.7007 66.3946 14.6939 68.2993 19.0476 68.8436C23.4014 69.3878 29.6599 68.2993 29.6599 68.2993C29.6599 68.2993 26.3946 66.9388 20.6803 66.3946Z" stroke="#0E2F56" stroke-linejoin="round"/>
</svg>
