<svg width="364" height="127" viewBox="0 0 364 127" fill="none" xmlns="http://www.w3.org/2000/svg">
<rect y="7" width="116.556" height="119.101" rx="9" fill="#118DF0"/>
<path d="M17.1968 100.579C16.822 100.329 11.8819 84.0164 17.1968 66.5505C18.8082 79.3845 18.975 86.7871 17.1968 100.579Z" fill="#0E2F56" stroke="#0E2F56" stroke-linejoin="round"/>
<path d="M30.0945 52.3718C31.241 66.9556 24.203 90.0466 20.5407 99.7691C41.5591 70.2774 44.266 50.7514 42.9922 44.6748L30.0945 52.3718Z" fill="#0E2F56"/>
<path d="M62.5775 34.9522C61.0488 56.6659 39.0114 82.3496 28.1838 92.4772C39.6643 83.1235 73.8563 49.5868 72.609 30.091L62.5775 34.9522Z" fill="#0E2F56"/>
<path d="M89.3281 15.1021C89.3281 48.8068 56.5267 75.8679 40.126 85.1853C79.2966 65.3352 94.5827 44.6748 95.5381 41.0288C96.3024 38.1121 91.7166 22.529 89.3281 15.1021Z" fill="#0E2F56"/>
<path d="M62.5775 81.9445C54.5523 84.5372 35.3491 94.9079 26.7507 99.7691L91.7166 79.1087C95.0604 77.4883 94.5827 62.0943 94.5827 64.1198C94.5827 66.1454 72.609 78.7036 62.5775 81.9445Z" fill="#0E2F56"/>
<path d="M54.4567 97.7436C44.9029 98.5538 34.2345 101.119 26.7507 102.605L69.7428 104.225L81.2074 96.1232C74.042 96.5283 64.0105 96.9334 54.4567 97.7436Z" fill="#0E2F56"/>
<path d="M36.3045 105.846C26.273 105.036 20.5407 105.846 20.5407 105.846C20.5407 105.846 25.7953 108.681 33.4383 109.492C41.0814 110.302 52.0683 108.681 52.0683 108.681C52.0683 108.681 46.336 106.656 36.3045 105.846Z" fill="#0E2F56"/>
<path d="M30.0945 52.3718C31.241 66.9556 24.203 90.0466 20.5407 99.7691C41.5591 70.2774 44.266 50.7514 42.9922 44.6748L30.0945 52.3718Z" stroke="#0E2F56" stroke-linejoin="round"/>
<path d="M62.5775 34.9522C61.0488 56.6659 39.0114 82.3496 28.1838 92.4772C39.6643 83.1235 73.8563 49.5868 72.609 30.091L62.5775 34.9522Z" stroke="#0E2F56" stroke-linejoin="round"/>
<path d="M89.3281 15.1021C89.3281 48.8068 56.5267 75.8679 40.126 85.1853C79.2966 65.3352 94.5827 44.6748 95.5381 41.0288C96.3024 38.1121 91.7166 22.529 89.3281 15.1021Z" stroke="#0E2F56" stroke-linejoin="round"/>
<path d="M62.5775 81.9445C54.5523 84.5372 35.3491 94.9079 26.7507 99.7691L91.7166 79.1087C95.0604 77.4883 94.5827 62.0943 94.5827 64.1198C94.5827 66.1454 72.609 78.7036 62.5775 81.9445Z" stroke="#0E2F56" stroke-linejoin="round"/>
<path d="M54.4567 97.7436C44.9029 98.5538 34.2345 101.119 26.7507 102.605L69.7428 104.225L81.2074 96.1232C74.042 96.5283 64.0105 96.9334 54.4567 97.7436Z" stroke="#0E2F56" stroke-linejoin="round"/>
<path d="M36.3045 105.846C26.273 105.036 20.5407 105.846 20.5407 105.846C20.5407 105.846 25.7953 108.681 33.4383 109.492C41.0814 110.302 52.0683 108.681 52.0683 108.681C52.0683 108.681 46.336 106.656 36.3045 105.846Z" stroke="#0E2F56" stroke-linejoin="round"/>
<path d="M226.279 90.4086C230.517 83.736 232.742 76.372 232.952 68.3167C233.042 64.7098 232.847 62.2902 232.366 61.0579C231.915 59.8255 230.998 59.1943 229.616 59.1643C228.233 59.1042 226.971 59.7504 225.828 61.103C224.716 62.4255 223.634 64.1838 222.582 66.378C219.787 72.1489 218.284 78.6262 218.074 85.8099C217.953 91.3705 218.915 94.2259 220.959 94.3762C222.763 94.4363 224.536 93.1138 226.279 90.4086ZM210.589 86.7116C210.89 78.4158 212.603 71.2773 215.729 65.2959C217.082 62.6509 218.194 60.7423 219.066 59.57C219.937 58.3678 220.989 57.1805 222.222 56.0083C224.776 53.5736 227.857 52.3864 231.464 52.4465C234.56 52.5968 236.965 54.1447 238.678 57.0903C239.94 59.1042 240.481 62.4706 240.301 67.1895C240.151 71.8784 239.354 76.4772 237.911 80.9857C236.499 85.4642 234.906 89.2063 233.132 92.2121C229.586 98.1333 225.062 101.004 219.562 100.823C217.548 100.733 215.729 99.8766 214.106 98.2535C213.024 97.2316 212.137 95.7287 211.446 93.745C210.785 91.7311 210.499 89.3867 210.589 86.7116ZM253.24 33.4204C254.863 33.4204 255.569 34.262 255.359 35.9451L251.616 91.9866L279.524 35.1787C280.186 33.7961 281.358 33.1799 283.041 33.3302L285.07 33.5105C287.114 33.6608 287.76 34.833 287.009 37.0272L256.17 96.405C254.998 98.7795 253.149 100.012 250.625 100.102L247.784 100.192C246.552 100.222 245.605 99.7714 244.944 98.8397C244.283 97.9079 243.997 96.6605 244.087 95.0975L247.333 35.4492C247.484 34.0966 248.4 33.4204 250.084 33.4204H253.24ZM284.848 81.3464C291.1 78.6413 295.353 74.9743 297.608 70.3455C298.75 67.971 299.321 65.6416 299.321 63.3572C299.321 61.0729 298.66 59.9307 297.337 59.9307C294.452 59.9307 291.957 62.185 289.853 66.6936C287.779 71.2021 286.111 76.0864 284.848 81.3464ZM283.676 87.433C283.225 90.0179 283.255 91.8363 283.766 92.8883C284.277 93.9103 285.089 94.5565 286.201 94.827C288.485 93.9854 291.281 91.6861 294.587 87.9289C295.158 87.3578 295.774 87.2977 296.435 87.7486L298.194 88.8306C298.554 89.041 298.81 89.3717 298.96 89.8225C299.14 90.2433 299.155 90.589 299.005 90.8595C297.863 93.0837 295.699 95.4582 292.513 97.983C289.357 100.478 286.817 101.53 284.893 101.139C280.535 100.087 277.98 97.8027 277.229 94.286C276.658 91.4907 276.763 87.7486 277.544 83.0597C278.356 78.3708 279.844 73.5316 282.008 68.5421C285.164 61.2382 288.816 56.6244 292.964 54.7008C296.24 53.1679 299.231 53.0026 301.936 54.2048C304.671 55.4071 306.039 58.3978 306.039 63.1769C306.039 65.9421 305.362 68.6623 304.01 71.3374C301.575 76.1165 297.277 80.3094 291.115 83.9163C288.711 85.329 286.231 86.5012 283.676 87.433ZM328.084 38.9659C328.084 38.9659 326.867 43.7149 324.432 53.213H329.302C329.993 53.213 330.444 53.3632 330.654 53.6638C330.865 53.9644 330.865 54.4904 330.654 55.2418L330.023 57.6314C329.632 58.9839 328.836 59.6602 327.633 59.6602H322.809L313.026 98.0732C312.665 99.4258 311.748 100.102 310.275 100.102H308.517C307.525 100.102 306.819 99.8165 306.398 99.2454C306.007 98.6743 305.902 97.968 306.083 97.1264L315.641 59.6602H312.034C311.403 59.6602 310.982 59.5099 310.771 59.2094C310.591 58.8787 310.606 58.2926 310.817 57.451L311.538 54.9713C311.868 53.7991 312.545 53.213 313.567 53.213H317.309L320.961 38.8757C321.321 37.5232 322.253 36.8469 323.756 36.8469H326.055C327.739 36.8469 328.415 37.5532 328.084 38.9659Z" fill="white"/>
<path d="M159.096 33.4204C160.719 33.4204 161.425 34.262 161.215 35.9451L157.473 91.9866L185.381 35.1787C186.042 33.7961 187.214 33.1799 188.897 33.3302L190.926 33.5105C192.97 33.6608 193.616 34.833 192.865 37.0272L162.026 96.405C160.854 98.7795 159.005 100.012 156.481 100.102L153.64 100.192C152.408 100.222 151.461 99.7714 150.8 98.8397C150.139 97.9079 149.853 96.6605 149.943 95.0975L153.189 35.4492C153.34 34.0966 154.256 33.4204 155.94 33.4204H159.096ZM198.542 90.4086C202.78 83.736 205.004 76.372 205.214 68.3167C205.304 64.7098 205.109 62.2902 204.628 61.0579C204.177 59.8255 203.261 59.1943 201.878 59.1643C200.495 59.1042 199.233 59.7504 198.091 61.103C196.979 62.4255 195.897 64.1838 194.845 66.378C192.049 72.1489 190.546 78.6262 190.336 85.8099C190.216 91.3705 191.178 94.2259 193.222 94.3762C195.025 94.4363 196.798 93.1138 198.542 90.4086ZM182.852 86.7116C183.152 78.4158 184.866 71.2773 187.992 65.2959C189.344 62.6509 190.456 60.7423 191.328 59.57C192.2 58.3678 193.252 57.1805 194.484 56.0083C197.039 53.5736 200.12 52.3864 203.726 52.4465C206.822 52.5968 209.227 54.1447 210.94 57.0903C212.203 59.1042 212.744 62.4706 212.563 67.1895C212.413 71.8784 211.616 76.4772 210.174 80.9857C208.761 85.4642 207.168 89.2063 205.395 92.2121C201.848 98.1333 197.324 101.004 191.824 100.823C189.81 100.733 187.992 99.8766 186.368 98.2535C185.286 97.2316 184.4 95.7287 183.708 93.745C183.047 91.7311 182.762 89.3867 182.852 86.7116Z" fill="white"/>
</svg>
